<svg width="140" height="64" viewBox="0 0 140 64" fill="none" xmlns="http://www.w3.org/2000/svg">
<path d="M15.9594 49.1926C12.6493 57.7943 11.9531 62.5248 13.9366 63.4819C16.8668 64.8463 25.7773 57.5137 40.6682 41.4839" fill="#7C3AED"/>
<rect width="138.094" height="48.5106" rx="6.3827" transform="matrix(0.998885 -0.0472195 0.0485674 0.99882 0 6.52051)" fill="#7C3AED"/>
<g clip-path="url(#clip0_468_12313)">
<path d="M71.4887 35.0128C70.2428 35.0499 69.0036 34.8218 67.8552 34.3441C66.9575 33.9683 66.1912 33.3414 65.6509 32.5409C65.1548 31.7441 64.8986 30.8246 64.9121 29.8898H68.7394C68.737 30.2409 68.8379 30.5852 69.03 30.8809C69.2699 31.1924 69.5927 31.4322 69.9626 31.5736C70.4588 31.7522 70.9847 31.8373 71.5129 31.8243C71.9865 31.8367 72.4585 31.7639 72.9057 31.6094C73.244 31.5004 73.5455 31.3021 73.7777 31.0362C73.9862 30.7826 74.1014 30.4669 74.1047 30.1405C74.1078 29.9365 74.0577 29.735 73.9594 29.5554C73.8541 29.3774 73.7039 29.2293 73.5234 29.1255C72.9358 28.8115 72.278 28.6473 71.6098 28.6478L70.6166 28.5642C69.2133 28.5129 67.8688 27.9953 66.8015 27.0954C66.3348 26.6684 65.9671 26.1469 65.7236 25.5668C65.474 24.9861 65.3582 24.358 65.3845 23.7278C65.3673 22.8441 65.6068 21.9739 66.0748 21.22C66.5716 20.503 67.2646 19.9398 68.0732 19.5959C69.0302 19.1976 70.0627 19.0062 71.1011 19.0347C72.197 18.9988 73.2868 19.2112 74.2864 19.6556C75.1239 20.0275 75.8287 20.6391 76.309 21.4111C76.782 22.2067 77.021 23.1163 76.9994 24.0383H73.1842C73.1859 23.7147 73.0979 23.3968 72.9299 23.1188C72.7588 22.8397 72.5052 22.6189 72.2032 22.4858C71.8517 22.3077 71.4597 22.2214 71.0647 22.2351C70.6982 22.2189 70.333 22.2885 69.9989 22.4381C69.7319 22.5548 69.5018 22.7405 69.3328 22.9755C69.1984 23.2171 69.1276 23.4881 69.1269 23.7636C69.1288 24.1354 69.2713 24.4931 69.5266 24.7667C69.9151 25.0914 70.4102 25.2655 70.9194 25.2563L71.9125 25.3399C72.9632 25.4105 73.9926 25.6652 74.9525 26.0923C75.776 26.427 76.4919 26.9759 77.0236 27.6805C77.5517 28.4099 77.8161 29.2931 77.7745 30.1883C77.7881 31.0873 77.5172 31.968 76.9994 32.708C76.4714 33.4941 75.7161 34.1057 74.8314 34.4635C73.766 34.8665 72.629 35.0534 71.4887 35.0128Z" fill="white"/>
<path d="M87.5728 34.4632C86.733 34.8569 85.8243 35.088 84.8962 35.1439C84.0721 35.1955 83.2463 35.0733 82.4739 34.7857C81.7665 34.5149 81.1203 34.109 80.5724 33.5915C80.0507 33.0397 79.6397 32.3954 79.3613 31.6927L79.1554 31.2509C78.818 30.5225 78.6326 29.7346 78.6103 28.9342C78.5842 28.1705 78.7204 27.4098 79.01 26.701C79.3123 25.9553 79.7751 25.283 80.3665 24.7306C81.0113 24.0958 81.7769 23.5926 82.6192 23.2499C83.4399 22.8659 84.3284 22.6429 85.2353 22.5931C86.0584 22.5409 86.8834 22.6589 87.6576 22.9394C88.3954 23.2122 89.0617 23.6448 89.6075 24.2052C90.1596 24.7498 90.5997 25.3946 90.9035 26.104L91.1093 26.5458C91.4375 27.2552 91.6147 28.0233 91.6301 28.8028C91.6755 29.5577 91.5471 30.313 91.2547 31.012C90.9725 31.7445 90.5395 32.4113 89.983 32.9705C89.2818 33.6129 88.4642 34.1194 87.5728 34.4632ZM86.3011 31.5853C86.7895 31.4 87.2111 31.0758 87.5122 30.6538C87.7575 30.2803 87.8879 29.8448 87.8877 29.3999C87.8767 28.8747 87.7529 28.3578 87.5244 27.8833C87.3011 27.4288 86.9882 27.0229 86.6039 26.6891C86.2539 26.3572 85.8108 26.1367 85.3322 26.0562C84.8301 25.9789 84.3161 26.0495 83.8546 26.2592C83.3843 26.4477 82.983 26.7725 82.704 27.1907C82.4607 27.6001 82.3312 28.0656 82.3286 28.5401C82.3454 29.0722 82.4689 29.5957 82.6919 30.0806C82.9165 30.531 83.2246 30.936 83.6003 31.2748C83.9301 31.5925 84.3546 31.7976 84.8114 31.8599C85.3131 31.9201 85.8212 31.824 86.2648 31.5853H86.3011Z" fill="white"/>
<path d="M98.4729 35.0126C97.5728 35.0338 96.678 34.8712 95.8447 34.535C95.1433 34.2404 94.509 33.81 93.9796 33.2691C93.4852 32.7191 93.1064 32.0778 92.8653 31.3823C92.6231 30.6744 92.5004 29.9321 92.502 29.185V28.7671C92.4924 27.9911 92.6195 27.2194 92.8774 26.4862C93.1545 25.7793 93.5655 25.1308 94.0886 24.5755C94.6112 24.0242 95.2528 23.5957 95.9658 23.3216C96.7709 22.9904 97.637 22.8278 98.5092 22.8439C99.4819 22.8214 100.446 23.0303 101.319 23.453C102.107 23.8589 102.775 24.4597 103.257 25.1965C103.765 25.9389 104.046 26.8091 104.068 27.7042H100.326C100.302 27.2577 100.118 26.8342 99.8052 26.5101C99.6399 26.3477 99.4418 26.2216 99.2238 26.1399C99.0039 26.0568 98.7687 26.0202 98.5335 26.0324C98.0769 26.0058 97.6257 26.1414 97.2618 26.4145C96.9341 26.6873 96.6941 27.0483 96.5714 27.4535C96.4105 27.9595 96.3328 28.4876 96.3413 29.0178C96.3387 29.5335 96.4038 30.0473 96.5351 30.5464C96.6472 30.9504 96.8791 31.3122 97.2012 31.5853C97.5609 31.8172 97.9827 31.9378 98.4124 31.9316C98.7527 31.9446 99.0907 31.8706 99.3934 31.7167C99.657 31.5924 99.8765 31.3926 100.023 31.1435C100.189 30.8614 100.292 30.5481 100.326 30.224H104.068C104.02 31.1236 103.727 31.9939 103.221 32.7437C102.73 33.4763 102.054 34.0692 101.259 34.4633C100.387 34.8616 99.4325 35.0499 98.4729 35.0126Z" fill="white"/>
<path d="M106.188 34.595V23.1428H110.015V34.595H106.188ZM106.188 25.8894L104.771 23.1428H110.076V25.8894H106.188ZM107.763 22.2352C107.48 22.2542 107.196 22.2177 106.927 22.1277C106.66 22.0401 106.414 21.9022 106.2 21.7217C105.874 21.3375 105.702 20.8491 105.716 20.3484C105.702 19.8512 105.874 19.3664 106.2 18.987C106.41 18.805 106.652 18.6632 106.915 18.569C107.182 18.4736 107.467 18.4369 107.751 18.4616C108.026 18.4369 108.303 18.4736 108.562 18.569C108.829 18.6536 109.073 18.7965 109.277 18.987C109.603 19.3664 109.775 19.8512 109.761 20.3484C109.775 20.8491 109.603 21.3375 109.277 21.7217C109.069 21.9124 108.821 22.0552 108.55 22.1396C108.278 22.2306 107.988 22.2631 107.702 22.2352H107.763Z" fill="white"/>
<path d="M119.414 34.5947V31.2391H118.784V27.6565C118.802 27.4468 118.777 27.2356 118.711 27.0355C118.647 26.8387 118.544 26.6561 118.408 26.4981C118.245 26.3572 118.056 26.2478 117.851 26.1757C117.643 26.114 117.425 26.0937 117.209 26.116H115.998L114.351 26.1757L112.789 26.2593V23.1067C113.116 23.1067 113.515 23.047 114 23.0231H116.882C117.913 22.9994 118.938 23.178 119.898 23.5485C120.691 23.8463 121.363 24.3915 121.812 25.101C122.286 25.8953 122.522 26.8066 122.49 27.7282V34.6902L119.414 34.5947ZM115.78 34.8932C115.022 34.9187 114.267 34.7716 113.576 34.4633C112.95 34.1964 112.416 33.7568 112.038 33.1975C111.674 32.6042 111.494 31.9197 111.517 31.2271C111.479 30.4743 111.725 29.7343 112.207 29.1492C112.712 28.5795 113.372 28.165 114.109 27.9551C115.021 27.6901 115.968 27.5652 116.919 27.5849H119.123V29.5314H116.882C116.665 29.5113 116.445 29.5399 116.24 29.615C116.033 29.6752 115.843 29.7814 115.683 29.9255C115.54 30.0541 115.428 30.2134 115.356 30.3912C115.283 30.565 115.25 30.7526 115.259 30.9405C115.255 31.132 115.288 31.3225 115.356 31.5018C115.431 31.6779 115.542 31.8366 115.683 31.9675C116.023 32.2407 116.457 32.3734 116.894 32.3377C117.195 32.3443 117.493 32.283 117.766 32.1586C118.044 32.0282 118.273 31.8151 118.42 31.5495C118.612 31.1585 118.711 30.7299 118.711 30.2956L119.595 31.1196C119.552 31.8238 119.35 32.5094 119.002 33.1259C118.737 33.6848 118.306 34.1512 117.766 34.4633C117.137 34.765 116.443 34.9125 115.744 34.8932H115.78Z" fill="white"/>
<path d="M124.743 34.5949V19.4526H128.57V34.5949H124.743ZM124.743 22.1993L123.471 19.4526H128.57V22.1993H124.743Z" fill="white"/>
<path d="M17.7502 34.8936C16.5052 34.9356 15.2657 34.7116 14.1167 34.2368C13.2294 33.8553 12.4695 33.2344 11.9246 32.4455C11.4324 31.652 11.1803 30.7364 11.1979 29.8064H14.9524C14.95 30.1575 15.051 30.5018 15.2431 30.7975C15.4826 31.1016 15.8005 31.3367 16.1636 31.4782C16.6589 31.6603 17.1855 31.7455 17.7138 31.729C18.1835 31.7413 18.6515 31.6684 19.0945 31.514C19.4366 31.4129 19.7403 31.2133 19.9666 30.9408C20.1752 30.6928 20.2869 30.3793 20.2815 30.0571C20.2832 29.8553 20.233 29.6564 20.1355 29.4788C20.0381 29.3013 19.8966 29.1511 19.7243 29.0421C19.1358 28.7434 18.4848 28.5839 17.8228 28.5764L16.866 28.4928C15.4843 28.4255 14.1641 27.909 13.1115 27.0239C12.649 26.6053 12.2839 26.0928 12.0414 25.5218C11.7989 24.9508 11.6846 24.3347 11.7066 23.716C11.6783 22.8235 11.9185 21.9426 12.3969 21.1844C12.886 20.4681 13.5763 19.9078 14.3832 19.5722C15.3322 19.1548 16.3598 18.9392 17.3989 18.9393C18.4903 18.9122 19.5741 19.1243 20.5721 19.5603C21.4008 19.9417 22.0962 20.5568 22.5705 21.3277C23.0429 22.1104 23.2822 23.0085 23.2609 23.9191H19.5063C19.5082 23.5992 19.4202 23.285 19.252 23.0115C19.0802 22.7329 18.8269 22.5122 18.5253 22.3786C18.1769 22.2039 17.7897 22.1177 17.3989 22.1278C17.033 22.1187 16.6693 22.1879 16.3331 22.3308C16.0705 22.4493 15.8447 22.6349 15.6791 22.8682C15.5433 23.1092 15.4724 23.3806 15.4732 23.6563C15.4701 23.8394 15.5038 24.0212 15.5724 24.1914C15.641 24.3615 15.7432 24.5165 15.8729 24.6475C16.2545 24.9677 16.7404 25.1415 17.2415 25.1371L18.2346 25.2207C19.2794 25.2954 20.3034 25.5458 21.2625 25.9611C22.0804 26.3052 22.7939 26.8524 23.3336 27.5494C23.849 28.2713 24.1126 29.1389 24.0845 30.0213C24.1008 30.9318 23.83 31.8248 23.3093 32.5769C22.7643 33.3353 22.0066 33.9205 21.1293 34.2607C20.0597 34.7007 18.9089 34.9163 17.7502 34.8936Z" fill="white"/>
<path d="M33.7009 34.4637L30.2855 29.1496H28.7473L33.3133 23.107H37.2859L33.0106 28.8152V27.012L37.9399 34.4637H33.7009ZM25.5015 34.4637V19.417H29.3045V34.4637H25.5015Z" fill="white"/>
<path d="M39.4417 34.4637V23.0832H43.2447V34.4637H39.4417ZM36.6682 25.8059L38.4849 23.0832H43.2447V25.8059H36.6682ZM41.0162 22.2234C40.7351 22.2451 40.4524 22.2097 40.1858 22.1193C39.9191 22.029 39.6741 21.8855 39.466 21.6979C39.1376 21.3245 38.9645 20.8425 38.9815 20.3485C38.9645 19.8545 39.1376 19.3725 39.466 18.9991C39.6704 18.8134 39.9113 18.6709 40.1738 18.5805C40.4363 18.4902 40.7147 18.4538 40.992 18.4736C41.2695 18.4516 41.5485 18.487 41.8113 18.5774C42.0741 18.6679 42.3148 18.8115 42.518 18.9991C42.8464 19.3725 43.0195 19.8545 43.0025 20.3485C43.0195 20.8425 42.8464 21.3245 42.518 21.6979C42.3183 21.8827 42.0814 22.0239 41.8226 22.1124C41.5638 22.2009 41.2891 22.2346 41.0162 22.2114V22.2234Z" fill="white"/>
<path d="M45.0859 34.4635V23.083H48.0896V27.9911H47.9321C47.903 26.9982 48.0506 26.008 48.3681 25.0653C48.6188 24.3592 49.084 23.7462 49.7004 23.3099C50.341 22.9 51.0928 22.6917 51.8562 22.7128H52.0258C52.7861 22.6856 53.536 22.8945 54.1695 23.3099C54.789 23.7405 55.2518 24.3558 55.4897 25.0653C55.8223 26.0049 55.9783 26.9964 55.9499 27.9911H55.1142C55.0851 26.9982 55.2327 26.008 55.5502 25.0653C55.8009 24.3592 56.2661 23.7462 56.8825 23.3099C57.5231 22.9 58.2749 22.6917 59.0383 22.7128H59.2079C59.9755 22.6885 60.7321 22.8969 61.3758 23.3099C62.0041 23.7397 62.4788 24.354 62.7323 25.0653C63.0856 26.0001 63.2502 26.994 63.2168 27.9911V34.4635H59.4138V27.8836C59.4293 27.4162 59.2746 26.9587 58.9778 26.5939C58.8344 26.4151 58.6495 26.273 58.4387 26.1795C58.2279 26.0859 57.9974 26.0438 57.7666 26.0565C57.5372 26.0537 57.31 26.1003 57.1008 26.1931C56.8916 26.286 56.7055 26.4227 56.5555 26.5939C56.2524 26.9738 56.0977 27.4484 56.1195 27.9314V34.4635H52.3165V27.8836C52.332 27.4162 52.1773 26.9587 51.8805 26.5939C51.7371 26.4151 51.5522 26.273 51.3414 26.1795C51.1306 26.0859 50.9001 26.0438 50.6693 26.0565C50.4399 26.0537 50.2127 26.1003 50.0035 26.1931C49.7943 26.286 49.6082 26.4227 49.4582 26.5939C49.1551 26.9738 49.0003 27.4484 49.0222 27.9314V34.4635H45.0859Z" fill="white"/>
</g>
<defs>
<clipPath id="clip0_468_12313">
<rect width="117.336" height="16.7185" fill="white" transform="translate(11.2344 18.4614)"/>
</clipPath>
</defs>
</svg>
