<svg width="140" height="64" viewBox="0 0 140 64" fill="none" xmlns="http://www.w3.org/2000/svg">
    <path d="M15.9591 49.1926C12.649 57.7943 11.9528 62.5248 13.9364 63.4819C16.8665 64.8463 25.7771 57.5137 40.668 41.4839" fill="#7C3AED"/>
    <rect width="138.094" height="48.5106" rx="6.3827" transform="matrix(0.998885 -0.0472195 0.0485674 0.99882 0 6.52051)" fill="#7C3AED"/>
    <path d="M15.0013 35.0994L11.2344 19.4919H15.3951L18.2302 32.4335L17.5608 31.9417H19.3065L18.5452 32.4335L20.6978 20.0614H23.966L20.9997 35.1124L15.0013 35.0994ZM24.3991 35.0994L21.2359 20.0484H24.6879L27.1948 32.4205L26.4336 31.9288H28.0873L27.5229 32.4205L29.9643 19.479H33.9019L30.5943 35.0865L24.3991 35.0994Z" fill="white"/>
    <path d="M35.5301 35.0998V23.2971H39.4677V35.0998H35.5301ZM33.7031 26.1184L34.3273 23.2971H39.4677V26.1184L33.7031 26.1184ZM37.1577 22.3524C36.8682 22.3757 36.577 22.3407 36.3017 22.2495C36.0264 22.1583 35.7727 22.0128 35.5563 21.8218C35.2189 21.4285 35.0413 20.926 35.0576 20.4112C35.0382 19.8998 35.2164 19.4002 35.5563 19.0135C35.7654 18.8189 36.0138 18.67 36.2852 18.5763C36.5565 18.4827 36.8449 18.4464 37.1314 18.4699C37.42 18.4454 37.7106 18.4811 37.9842 18.5747C38.2579 18.6684 38.5085 18.8179 38.7196 19.0135C39.0595 19.4002 39.2378 19.8998 39.2183 20.4112C39.2346 20.926 39.057 21.4285 38.7196 21.8218C38.5104 22.0117 38.2637 22.1568 37.9949 22.2482C37.7261 22.3395 37.441 22.375 37.1577 22.3524Z" fill="white"/>
    <path d="M42.1055 35.0997V19.4922H46.0431V35.0997H42.1055ZM40.793 22.3135V19.4922H46.0431V22.3135H40.793Z" fill="white"/>
    <path d="M53.4332 35.4882C52.6441 35.4946 51.8622 35.3404 51.1363 35.0352C50.4645 34.7238 49.8622 34.2839 49.3643 33.7411C48.8688 33.1812 48.4818 32.5364 48.2224 31.8387C47.9537 31.0775 47.8205 30.2763 47.8287 29.4704V28.9527C47.8185 28.1487 47.9427 27.3486 48.1962 26.5844C48.4356 25.8782 48.8098 25.2236 49.2987 24.6561C49.7715 24.1031 50.3634 23.661 51.0313 23.362C51.7447 23.0454 52.5197 22.8864 53.302 22.8961C54.1695 22.8663 55.0271 23.0867 55.7695 23.5302C56.4779 23.9614 57.0329 24.5991 57.3577 25.355C57.7762 26.2929 57.9908 27.3068 57.9877 28.3315L57.0821 27.6715V19.5054H61.0197V35.1129H57.8958V30.3245H58.329C58.3274 31.2793 58.1075 32.2215 57.6858 33.081C57.3059 33.8269 56.7187 34.4508 55.9927 34.8799C55.2124 35.3105 54.3268 35.521 53.4332 35.4882ZM54.4964 32.2787C54.955 32.2858 55.4076 32.1742 55.8089 31.9551C56.2203 31.7419 56.5583 31.4131 56.7802 31.0104C57.0383 30.5567 57.1654 30.042 57.1477 29.5221V28.7974C57.1658 28.2922 57.0335 27.7928 56.7671 27.3609C56.5262 26.9847 56.1859 26.6805 55.7827 26.4809C55.3813 26.2618 54.9288 26.1503 54.4701 26.1573C53.9707 26.1551 53.4819 26.2993 53.0657 26.5715C52.6477 26.84 52.3119 27.2158 52.0944 27.6585C51.8487 28.1581 51.7272 28.7082 51.74 29.2633C51.7272 29.8184 51.8487 30.3685 52.0944 30.8681C52.3203 31.2948 52.6551 31.6561 53.0657 31.9163C53.4992 32.1657 53.9946 32.2912 54.4964 32.2787Z" fill="white"/>
    <path d="M69.2216 35.5265C67.9437 35.5613 66.673 35.3275 65.494 34.8406C64.5694 34.4503 63.7803 33.8027 63.2233 32.977C62.7063 32.1588 62.4418 31.2101 62.462 30.2463H66.3996C66.3988 30.6086 66.5036 30.9635 66.7015 31.2687C66.9471 31.5897 67.279 31.8363 67.6597 31.9805C68.1716 32.1673 68.7153 32.2552 69.2609 32.2393C69.7472 32.2493 70.2315 32.1748 70.6916 32.0193C71.0433 31.9069 71.3567 31.7009 71.5973 31.424C71.8109 31.1642 71.9268 30.8396 71.9254 30.5052C71.9312 30.2943 71.8794 30.0858 71.7755 29.9014C71.6716 29.717 71.5194 29.5635 71.3348 29.4569C70.7286 29.1381 70.053 28.9694 69.366 28.9651L68.3422 28.8745C66.8937 28.8236 65.5056 28.2898 64.4046 27.3604C63.9209 26.9212 63.54 26.3835 63.2884 25.7845C63.0368 25.1856 62.9206 24.5398 62.9476 23.8921C62.9277 22.9802 63.1737 22.0818 63.6564 21.3037C64.1692 20.5662 64.8838 19.9872 65.7171 19.6343C66.705 19.2248 67.7696 19.0263 68.8409 19.0519C69.9703 19.0197 71.0923 19.2409 72.1223 19.699C72.9852 20.0849 73.7117 20.7157 74.2092 21.5108C74.6924 22.3313 74.9376 23.267 74.918 24.2156H70.9804C70.9883 23.8822 70.897 23.5537 70.7179 23.2708C70.5419 22.9813 70.281 22.7512 69.9697 22.6108C69.6082 22.4303 69.2067 22.3413 68.8016 22.352C68.423 22.3393 68.0463 22.41 67.699 22.5591C67.4258 22.6821 67.1904 22.8741 67.0165 23.1156C66.8736 23.3638 66.8011 23.6455 66.8065 23.9309C66.7988 24.3153 66.945 24.6872 67.2134 24.9662C67.6128 25.2993 68.121 25.4786 68.6441 25.4709L69.6678 25.5615C70.7513 25.6297 71.8137 25.8882 72.8048 26.325C73.6516 26.6787 74.3894 27.2455 74.9443 27.9686C75.4828 28.7245 75.7549 29.6338 75.7186 30.5569C75.7263 31.4801 75.4469 32.3834 74.918 33.1452C74.3599 33.9322 73.5794 34.5398 72.6736 34.8924C71.5777 35.3301 70.4037 35.5457 69.2216 35.5265Z" fill="white"/>
    <path d="M85.799 34.983C84.9338 35.3868 83.9982 35.624 83.0427 35.6819C82.2036 35.7303 81.3635 35.6069 80.5751 35.3195C79.8384 35.021 79.1692 34.5811 78.6063 34.0254C78.0487 33.4606 77.6035 32.7978 77.2938 32.0712L77.0838 31.6053C76.7404 30.8553 76.5487 30.0464 76.5194 29.2241C76.4995 28.4361 76.6424 27.6523 76.9394 26.9205C77.2517 26.1535 77.726 25.4609 78.3307 24.8886C78.9978 24.2364 79.7867 23.7178 80.6539 23.3615C81.5038 22.9704 82.4213 22.742 83.3577 22.6886C84.1924 22.6412 85.0281 22.7646 85.8122 23.0509C86.5694 23.3325 87.2549 23.7742 87.8204 24.3451C88.4204 24.9168 88.9018 25.5981 89.2379 26.351L89.4479 26.8169C89.784 27.5454 89.9671 28.3334 89.986 29.1335C90.0256 29.912 89.8912 30.6896 89.5923 31.4112C89.3019 32.1668 88.8548 32.8544 88.2797 33.4301C87.5636 34.1024 86.7208 34.63 85.799 34.983ZM84.4865 32.0194C84.9752 31.8232 85.3949 31.4903 85.694 31.0618C85.9499 30.6772 86.0868 30.2275 86.0878 29.7676C86.0733 29.2251 85.9436 28.6917 85.7072 28.2017C85.4895 27.7087 85.1672 27.2674 84.7621 26.9075C84.4013 26.5656 83.9435 26.3399 83.4496 26.2604C82.9325 26.1781 82.4022 26.2503 81.927 26.4675C81.4456 26.6641 81.0344 26.9974 80.7458 27.4252C80.4938 27.8495 80.3581 28.3312 80.352 28.8229C80.3731 29.3686 80.5024 29.905 80.7326 30.4017C80.954 30.8893 81.2707 31.3291 81.6646 31.6959C82.0234 32.0339 82.4842 32.2474 82.9771 32.3042C83.4934 32.3572 84.0141 32.2581 84.4734 32.0194H84.4865Z" fill="white"/>
    <path d="M97.0339 35.5264C96.1081 35.5454 95.188 35.3781 94.33 35.0347C93.5954 34.7177 92.9376 34.2501 92.4006 33.6629C91.8914 33.0981 91.503 32.4379 91.2587 31.7216C91.007 30.9923 90.8784 30.2272 90.8781 29.4569V29.0298C90.8731 28.2283 91.0063 27.4319 91.2718 26.6744C91.5369 25.9486 91.9426 25.2805 92.4662 24.7073C93.0028 24.1387 93.6622 23.6964 94.3956 23.4132C95.2272 23.0735 96.1208 22.9061 97.0207 22.9214C98.0253 22.8997 99.0203 23.1172 99.9215 23.5555C100.733 23.9696 101.42 24.5852 101.916 25.3415C102.432 26.1117 102.723 27.0073 102.757 27.9298H98.8977C98.8637 27.4796 98.6737 27.0546 98.3595 26.7262C98.1877 26.5584 97.9821 26.428 97.7561 26.3433C97.53 26.2586 97.2885 26.2215 97.047 26.2344C96.5766 26.2059 96.1112 26.3435 95.7345 26.6227C95.3994 26.9069 95.1535 27.2796 95.0257 27.6968C94.8579 28.2197 94.7781 28.7662 94.7894 29.3145C94.7819 29.8429 94.8481 30.3698 94.9863 30.8804C95.1034 31.2961 95.3405 31.6693 95.6688 31.9546C96.058 32.2058 96.5164 32.3324 96.9813 32.3169C97.3316 32.3279 97.679 32.2523 97.992 32.0969C98.2631 31.9632 98.4906 31.7569 98.6483 31.5016C98.815 31.2111 98.9178 30.8892 98.9502 30.5569H102.809C102.76 31.4805 102.461 32.3742 101.943 33.1452C101.434 33.9019 100.732 34.5133 99.9083 34.9182C99.0129 35.3435 98.0274 35.552 97.0339 35.5264Z" fill="white"/>
    <path d="M104.988 35.0996V23.297H108.926V35.0996H104.988ZM104.988 26.1182L103.466 23.297H108.926V26.1182H104.988ZM106.603 22.3522C106.313 22.3741 106.023 22.3384 105.747 22.2472C105.472 22.1561 105.219 22.0113 105.002 21.8216C104.664 21.4284 104.486 20.9258 104.503 20.411C104.483 19.8996 104.662 19.4 105.002 19.0133C105.214 18.8197 105.465 18.6715 105.738 18.578C106.011 18.4845 106.301 18.4476 106.59 18.4698C106.876 18.4437 107.165 18.4788 107.437 18.5726C107.709 18.6664 107.957 18.8167 108.165 19.0133C108.505 19.4 108.683 19.8996 108.663 20.411C108.68 20.9258 108.502 21.4284 108.165 21.8216C107.95 22.019 107.695 22.1686 107.416 22.2601C107.137 22.3517 106.842 22.3831 106.55 22.3522H106.603Z" fill="white"/>
    <path d="M118.613 35.0996V31.6313H117.97V27.93C117.987 27.7158 117.961 27.5003 117.894 27.296C117.826 27.0916 117.718 26.9025 117.576 26.7394C117.411 26.5899 117.216 26.4767 117.003 26.4075C116.79 26.3384 116.565 26.3147 116.342 26.3382H115.135L113.442 26.4029L111.827 26.4935V23.2452C112.168 23.2452 112.575 23.1805 113.061 23.1546H114.531H115.962C117.025 23.1267 118.083 23.3116 119.072 23.6981C119.887 24.0092 120.578 24.5722 121.041 25.3029C121.531 26.1202 121.772 27.059 121.737 28.0077V35.1773L118.613 35.0996ZM114.833 35.3973C114.064 35.4167 113.3 35.2617 112.602 34.9443C111.974 34.6684 111.44 34.2188 111.066 33.6502C110.691 33.0386 110.504 32.3327 110.528 31.6184C110.492 30.8451 110.744 30.0856 111.237 29.483C111.759 28.8974 112.443 28.4747 113.205 28.2665C114.142 27.9938 115.116 27.8629 116.093 27.8782H118.364V29.8842H116.054C115.83 29.8694 115.606 29.8984 115.395 29.9695C115.183 30.0406 114.987 30.1524 114.82 30.2983C114.672 30.4293 114.556 30.5917 114.481 30.7733C114.406 30.9549 114.374 31.1509 114.387 31.3466C114.38 31.5415 114.415 31.7357 114.49 31.9164C114.564 32.097 114.677 32.2601 114.82 32.3949C115.165 32.6755 115.607 32.8145 116.054 32.7831C116.365 32.7869 116.674 32.7251 116.959 32.6019C117.245 32.4659 117.479 32.2438 117.629 31.9678C117.832 31.5662 117.936 31.1225 117.931 30.6736L118.836 31.5278C118.792 32.2534 118.586 32.9605 118.232 33.5984C117.935 34.1486 117.478 34.599 116.92 34.8926C116.279 35.2342 115.561 35.408 114.833 35.3973Z" fill="white"/>
    <path d="M124.112 35.0997V19.4922H128.05V35.0997H124.112ZM124.112 22.3135L122.8 19.4922H128.05V22.3135L124.112 22.3135Z" fill="white"/>
</svg>
