<svg width="14" height="16" viewBox="0 0 14 16" fill="none" xmlns="http://www.w3.org/2000/svg">
<path d="M13.7496 8.16157C13.7496 7.68526 13.711 7.20638 13.6286 6.73779H7.01953V9.43601H10.8043C10.6472 10.3062 10.1426 11.0761 9.40365 11.5652V13.316H11.6616C12.9876 12.0956 13.7496 10.2934 13.7496 8.16157Z" fill="#8B5CF6"/>
<path d="M7.01933 15.0075C8.90912 15.0075 10.5028 14.387 11.664 13.3159L9.40602 11.5652C8.77781 11.9926 7.9668 12.2346 7.02191 12.2346C5.19391 12.2346 3.64398 11.0013 3.08786 9.34326H0.757812V11.1481C1.9473 13.5142 4.37003 15.0075 7.01933 15.0075V15.0075Z" fill="#34A853"/>
<path d="M3.08552 9.34306C2.79202 8.47283 2.79202 7.53052 3.08552 6.66029V4.85547H0.758053C-0.235757 6.83536 -0.235757 9.16798 0.758053 11.1479L3.08552 9.34306V9.34306Z" fill="#FBBC04"/>
<path d="M7.01933 3.76652C8.01829 3.75107 8.98378 4.12697 9.70725 4.81697L11.7077 2.81648C10.441 1.627 8.75978 0.973039 7.01933 0.993636C4.37003 0.993636 1.94729 2.48693 0.757812 4.85559L3.08528 6.66041C3.63883 4.99977 5.19134 3.76652 7.01933 3.76652V3.76652Z" fill="#EA4335"/>
</svg>
