<svg width="33" height="32" viewBox="0 0 33 32" fill="none" xmlns="http://www.w3.org/2000/svg">
<path d="M23.4021 11.5514C25.4599 13.0276 27.9808 13.8962 30.7035 13.8962V8.63823C30.1882 8.63834 29.6743 8.58442 29.1702 8.47723V12.616C26.4477 12.616 23.9271 11.7474 21.8688 10.2713V21.0012C21.8688 26.3689 17.5329 30.72 12.1846 30.72C10.189 30.72 8.33424 30.1145 6.79346 29.0761C8.55201 30.8806 11.0044 32.0001 13.7176 32.0001C19.0662 32.0001 23.4023 27.649 23.4023 22.2811V11.5514H23.4021ZM25.2937 6.24674C24.242 5.09372 23.5515 3.60365 23.4021 1.95631V1.28003H21.949C22.3148 3.37379 23.5623 5.16257 25.2937 6.24674ZM10.1762 24.9572C9.58867 24.184 9.27115 23.2382 9.27258 22.2657C9.27258 19.8108 11.2558 17.8202 13.7025 17.8202C14.1585 17.8201 14.6118 17.8902 15.0463 18.0286V12.6531C14.5385 12.5833 14.026 12.5536 13.5136 12.5645V16.7485C13.0788 16.6101 12.6253 16.5398 12.1692 16.5403C9.72244 16.5403 7.73934 18.5306 7.73934 20.9859C7.73934 22.7219 8.73062 24.225 10.1762 24.9572Z" fill="#FF004F"/>
<path d="M21.8686 10.2712C23.927 11.7473 26.4475 12.6159 29.17 12.6159V8.47712C27.6503 8.15227 26.305 7.35529 25.2935 6.24674C23.5621 5.16246 22.3147 3.37368 21.9489 1.28003H18.1321V22.2809C18.1235 24.7292 16.1437 26.7116 13.7022 26.7116C12.2634 26.7116 10.9853 26.0233 10.1758 24.9572C8.73025 24.225 7.73897 22.7218 7.73897 20.986C7.73897 18.5309 9.72207 16.5404 12.1688 16.5404C12.6376 16.5404 13.0894 16.6136 13.5133 16.7486V12.5646C8.25895 12.6735 4.0332 16.9821 4.0332 22.281C4.0332 24.9262 5.08551 27.3242 6.79342 29.0763C8.3342 30.1145 10.189 30.7201 12.1846 30.7201C17.5329 30.7201 21.8687 26.3688 21.8687 21.0012V10.2712H21.8686Z" fill="black"/>
<path d="M29.1701 8.47707V7.35798C27.7997 7.36007 26.4562 6.97492 25.2935 6.24658C26.3228 7.37742 27.6781 8.15716 29.1701 8.47707ZM21.9489 1.27998C21.914 1.07988 21.8872 0.878468 21.8686 0.676285V0H16.5987V21.0011C16.5903 23.449 14.6106 25.4314 12.1688 25.4314C11.452 25.4314 10.7752 25.2606 10.1758 24.9572C10.9853 26.0233 12.2635 26.7114 13.7022 26.7114C16.1435 26.7114 18.1236 24.7292 18.1321 22.281V1.27998H21.9489ZM13.5135 12.5645V11.3732C13.0732 11.3128 12.6292 11.2825 12.1847 11.2827C6.83589 11.2826 2.5 15.6339 2.5 21.0011C2.5 24.366 4.20408 27.3316 6.79356 29.076C5.08565 27.324 4.03334 24.9259 4.03334 22.2808C4.03334 16.982 8.25898 12.6735 13.5135 12.5645Z" fill="#00F2EA"/>
</svg>
